General
      Complete name : Do.the.Right.Thing.1989.BRRip.H264.AAC.5.1ch.Gopo.mp4
      Format : MPEG-4
      Format profile : Base Media
      Codec ID : isom
      File size : 2.00 GiB
      Duration : 1h 59mn
      Overall bit rate : 2 388 Kbps
      Encoded date : UTC 2010-02-20 11:52:33
      Tagged date : UTC 2010-02-20 11:52:33
   Video #1
      ID : 1
      Format : AVC
      Format/Info : Advanced Video Codec
      Format profile : High@L4.1
      Format settings, CABAC : Yes
      Format settings, ReFrames : 6 frames
      Codec ID : avc1
      Codec ID/Info : Advanced Video Coding
      Duration : 1h 59mn
      Bit rate mode : Variable
      Bit rate : 2 056 Kbps
      Maximum bit rate : 9 847 Kbps
      Width : 1 280 pixels
      Height : 688 pixels
      Display aspect ratio : 1.860
      Frame rate mode : Constant
      Frame rate : 23.976 fps
      Resolution : 24 bits
      Colorimetry : 4:2:0
      Scan type : Progressive
      Bits/(Pixel*Frame) : 0.097
      Stream size : 1.72 GiB (86%)
      Writing library : x264 core 84 r1416 fcf70c2
      Encoding settings : cabac=1 / ref=6 / deblock=1:-3:-1 / analyse=0x3:0x133 / me=umh / subme=7 / psy=1 / psy_rd=1.0:0.1 / mixed_ref=1 / me_range=32 / chroma_me=1 / trellis=2 / 8x8dct=1 / cqm=0 / deadzone=21,11 / fast_pskip=0 / chroma_qp_offset=-3 / threads=2 / sliced_threads=0 / nr=0 / decimate=1 / mbaff=0 / constrained_intra=0 / bframes=6 / b_pyramid=2 / b_adapt=2 / b_bias=0 / direct=1 / wpredb=1 / wpredp=2 / keyint=250 / keyint_min=25 / scenecut=40 / intra_refresh=0 / rc_lookahead=40 / rc=2pass / mbtree=1 / bitrate=2056 / ratetol=1.0 / qcomp=0.60 / qpmin=10 / qpmax=51 / qpstep=4 / cplxblur=20.0 / qblur=0.5 / vbv_maxrate=40000 / vbv_bufsize=40000 / ip_ratio=1.40 / aq=1:1.00
      Encoded date : UTC 2010-02-19 17:43:28
      Tagged date : UTC 2010-02-20 11:57:57
   Audio #2
      ID : 2
      Format : AAC
      Format/Info : Advanced Audio Codec
      Format version : Version 4
      Format profile : LC
      Format settings, SBR : No
      Codec ID : 40
      Duration : 1h 59mn
      Bit rate mode : Variable
      Bit rate : 329 Kbps
      Maximum bit rate : 384 Kbps
      Channel(s) : 6 channels
      Channel positions : Front: L C R, Rear: L R, LFE
      Sampling rate : 48.0 KHz
      Resolution : 16 bits
      Stream size : 282 MiB (14%)
      Encoded date : UTC 2010-02-20 11:56:45
      Tagged date : UTC 2010-02-20 11:57:57
	Sample : YES
	Subtitle : English,Romanian

PLOT

On the hottest day of the year on a street in the Bedford-Stuyvesant section of Brooklyn, everyone's hate and bigotry smolders and builds until it explodes into violence.
Director: Spike Lee
CASTING 
     
	Danny Aiello	... 	Salvatore 'Sal' Fragione
	Ossie Davis	... 	Da Mayor
	Ruby Dee	... 	Mother Sister
	Richard Edson	... 	Vito
	Giancarlo Esposito	... 	Buggin Out
	Spike Lee	... 	Mookie
	Bill Nunn	... 	Radio Raheem
	John Turturro	... 	Pino
	Paul Benjamin	... 	ML
	Frankie Faison	... 	Coconut Sid
	Robin Harris	... 	Sweet Dick Willie
	Joie Lee	... 	Jade
	Miguel Sandoval	... 	Officer Ponte
	Rick Aiello	... 	Officer Long
	John Savage	... 	Clifton

SOURCE: do.the.right.thing.bluray-dimension.mkv

Notes: For best performance I suggest you to use KMPlayer(find it with google) for playback
These movies were made especially for PC and they don't play on a PS3.If you want to re-encode for PS3 or test for other devices be my guests.